<svg version="1.1" viewBox="0.0 0.0 630.6666666666666 656.0" fill="none" stroke="none" stroke-linecap="square" stroke-miterlimit="10" xmlns:xlink="http://www.w3.org/1999/xlink" xmlns="http://www.w3.org/2000/svg"><clipPath id="p.0"><path d="m0 0l630.6667 0l0 656.0l-630.6667 0l0 -656.0z" clip-rule="nonzero"/></clipPath><g clip-path="url(#p.0)"><path fill="#000000" fill-opacity="0.0" d="m0 0l630.6667 0l0 656.0l-630.6667 0z" fill-rule="evenodd"/><path fill="#000000" d="m0 611.33856l0 0c0 -23.935242 19.403345 -43.338562 43.33858 -43.338562l545.3229 0c11.49408 0 22.517395 4.56604 30.644958 12.6936035c8.127563 8.127563 12.6936035 19.150879 12.6936035 30.644958l0 0l0 0c0 23.935242 -19.40332 43.338623 -43.338562 43.338623l-545.3229 0c-23.935236 0 -43.33858 -19.403381 -43.33858 -43.338623z" fill-rule="evenodd"/><path stroke="#000000" stroke-width="1.0" stroke-linejoin="round" stroke-linecap="butt" d="m0 611.33856l0 0c0 -23.935242 19.403345 -43.338562 43.33858 -43.338562l545.3229 0c11.49408 0 22.517395 4.56604 30.644958 12.6936035c8.127563 8.127563 12.6936035 19.150879 12.6936035 30.644958l0 0l0 0c0 23.935242 -19.40332 43.338623 -43.338562 43.338623l-545.3229 0c-23.935236 0 -43.33858 -19.403381 -43.33858 -43.338623z" fill-rule="evenodd"/><path fill="#000000" d="m36.0 280.00052l0 0c0 -13.991516 11.342346 -25.333847 25.33384 -25.333847l101.33231 0l0 0c6.7189636 0 13.16272 2.6690826 17.913742 7.4200897c4.751007 4.7510376 7.420105 11.194794 7.420105 17.913757l0 250.65512c0 13.991516 -11.342346 25.333862 -25.333847 25.333862l-101.33231 0c-13.991493 0 -25.33384 -11.342346 -25.33384 -25.333862z" fill-rule="evenodd"/><path stroke="#000000" stroke-width="1.0" stroke-linejoin="round" stroke-linecap="butt" d="m36.0 280.00052l0 0c0 -13.991516 11.342346 -25.333847 25.33384 -25.333847l101.33231 0l0 0c6.7189636 0 13.16272 2.6690826 17.913742 7.4200897c4.751007 4.7510376 7.420105 11.194794 7.420105 17.913757l0 250.65512c0 13.991516 -11.342346 25.333862 -25.333847 25.333862l-101.33231 0c-13.991493 0 -25.33384 -11.342346 -25.33384 -25.333862z" fill-rule="evenodd"/><path fill="#000000" d="m240.0 192.0005l0 0c0 -13.991486 11.342346 -25.333832 25.333832 -25.333832l101.33234 0l0 0c6.718933 0 13.16272 2.6690826 17.913727 7.420105c4.751007 4.7510223 7.420105 11.194778 7.420105 17.913727l0 338.65515c0 13.991516 -11.342346 25.333862 -25.333832 25.333862l-101.33234 0c-13.991486 0 -25.333832 -11.342346 -25.333832 -25.333862z" fill-rule="evenodd"/><path stroke="#000000" stroke-width="1.0" stroke-linejoin="round" stroke-linecap="butt" d="m240.0 192.0005l0 0c0 -13.991486 11.342346 -25.333832 25.333832 -25.333832l101.33234 0l0 0c6.718933 0 13.16272 2.6690826 17.913727 7.420105c4.751007 4.7510223 7.420105 11.194778 7.420105 17.913727l0 338.65515c0 13.991516 -11.342346 25.333862 -25.333832 25.333862l-101.33234 0c-13.991486 0 -25.333832 -11.342346 -25.333832 -25.333862z" fill-rule="evenodd"/><path fill="#000000" d="m444.0 25.33384l0 0c0 -13.991493 11.342346 -25.33384 25.333832 -25.33384l101.332306 0l0 0c6.718994 0 13.16272 2.6690934 17.913757 7.4201097c4.7510376 4.7510166 7.420105 11.1947775 7.420105 17.91373l0 500.67093c0 13.991455 -11.342346 25.333801 -25.333862 25.333801l-101.332306 0c-13.991486 0 -25.333832 -11.342346 -25.333832 -25.333801z" fill-rule="evenodd"/><path stroke="#000000" stroke-width="1.0" stroke-linejoin="round" stroke-linecap="butt" d="m444.0 25.33384l0 0c0 -13.991493 11.342346 -25.33384 25.333832 -25.33384l101.332306 0l0 0c6.718994 0 13.16272 2.6690934 17.913757 7.4201097c4.7510376 4.7510166 7.420105 11.1947775 7.420105 17.91373l0 500.67093c0 13.991455 -11.342346 25.333801 -25.333862 25.333801l-101.332306 0c-13.991486 0 -25.333832 -11.342346 -25.333832 -25.333801z" fill-rule="evenodd"/></g></svg>