<svg version="1.1" viewBox="0.0 0.0 650.7034120734908 711.5800524934383" fill="none" stroke="none" stroke-linecap="square" stroke-miterlimit="10" xmlns:xlink="http://www.w3.org/1999/xlink" xmlns="http://www.w3.org/2000/svg"><clipPath id="p.0"><path d="m0 0l650.7034 0l0 711.5801l-650.7034 0l0 -711.5801z" clip-rule="nonzero"/></clipPath><g clip-path="url(#p.0)"><path fill="#000000" fill-opacity="0.0" d="m0 0l650.7034 0l0 711.5801l-650.7034 0z" fill-rule="evenodd"/><path fill="#000000" d="m0.22703412 43.527336l0 0c0 -24.039484 19.487852 -43.527336 43.527336 -43.527336l562.8981 0c11.544128 0 22.615479 4.5859027 30.778442 12.748861c8.162964 8.16296 12.748901 19.234308 12.748901 30.778475l0 623.1815c0 24.03949 -19.487854 43.527344 -43.527344 43.527344l-562.8981 0l0 0c-24.039486 0 -43.527336 -19.487854 -43.527336 -43.527344z" fill-rule="evenodd"/><path stroke="#000000" stroke-width="1.0" stroke-linejoin="round" stroke-linecap="butt" d="m0.22703412 43.527336l0 0c0 -24.039484 19.487852 -43.527336 43.527336 -43.527336l562.8981 0c11.544128 0 22.615479 4.5859027 30.778442 12.748861c8.162964 8.16296 12.748901 19.234308 12.748901 30.778475l0 623.1815c0 24.03949 -19.487854 43.527344 -43.527344 43.527344l-562.8981 0l0 0c-24.039486 0 -43.527336 -19.487854 -43.527336 -43.527344z" fill-rule="evenodd"/><path fill="#ffffff" d="m9.199475 655.02625l0 0c0 -23.935242 19.403343 -43.338562 43.338585 -43.338562l545.3228 0c11.49408 0 22.517456 4.565979 30.64502 12.6935425c8.127563 8.127563 12.6935425 19.15094 12.6935425 30.64502l0 0l0 0c0 23.935242 -19.40332 43.338562 -43.338562 43.338562l-545.3228 0c-23.93524 0 -43.338585 -19.40332 -43.338585 -43.338562z" fill-rule="evenodd"/><path stroke="#ffffff" stroke-width="2.0" stroke-linejoin="round" stroke-linecap="butt" d="m9.199475 655.02625l0 0c0 -23.935242 19.403343 -43.338562 43.338585 -43.338562l545.3228 0c11.49408 0 22.517456 4.565979 30.64502 12.6935425c8.127563 8.127563 12.6935425 19.15094 12.6935425 30.64502l0 0l0 0c0 23.935242 -19.40332 43.338562 -43.338562 43.338562l-545.3228 0c-23.93524 0 -43.338585 -19.40332 -43.338585 -43.338562z" fill-rule="evenodd"/><path fill="#ffffff" d="m45.199474 323.68817l0 0c0 -13.991486 11.342346 -25.333832 25.333843 -25.333832l101.33231 0l0 0c6.7189636 0 13.16272 2.669098 17.913727 7.420105c4.7510223 4.751007 7.4201202 11.194763 7.4201202 17.913727l0 250.65515c0 13.991516 -11.342346 25.333862 -25.333847 25.333862l-101.33231 0c-13.991497 0 -25.333843 -11.342346 -25.333843 -25.333862z" fill-rule="evenodd"/><path fill="#ffffff" d="m249.19948 235.68817l0 0c0 -13.991501 11.342331 -25.333847 25.333847 -25.333847l101.332306 0l0 0c6.7189636 0 13.16272 2.669098 17.913727 7.4201202c4.7510376 4.751007 7.420105 11.194778 7.420105 17.913727l0 338.65515c0 13.991516 -11.342346 25.333862 -25.333832 25.333862l-101.332306 0c-13.991516 0 -25.333847 -11.342346 -25.333847 -25.333862z" fill-rule="evenodd"/><path fill="#ffffff" d="m453.19946 69.02151l0 0c0 -13.991497 11.342346 -25.333843 25.333862 -25.333843l101.33234 0l0 0c6.718933 0 13.162659 2.669094 17.913696 7.420109c4.7510376 4.7510185 7.420105 11.194778 7.420105 17.913734l0 500.67087c0 13.991516 -11.342346 25.333862 -25.333801 25.333862l-101.33234 0c-13.991516 0 -25.333862 -11.342346 -25.333862 -25.333862z" fill-rule="evenodd"/></g></svg>